<svg xmlns="http://www.w3.org/2000/svg" style="border: 0 !important; clip: rect(0 0 0 0) !important; height: 1px !important; margin: -1px !important; overflow: hidden !important; padding: 0 !important; position: absolute !important; width: 1px !important;" class="root-svg-symbols-element">
    <symbol id="facebook" viewBox="0 0 8 15">
      <path d="M5.2,15V8.16H7.55L7.9,5.49H5.2V3.8c0-.77.21-1.3,1.35-1.3H8V.11C7.3,0,6.59,0,5.89,0A3.25,3.25,0,0,0,2.36,3.52v2H0V8.17H2.36V15Z"/>
    </symbol>
    <symbol id="telegram" viewBox="0 0 99.34 83.32">
      <path d="M92.64.55l-88,33.94c-6,2.41-6,5.76-1.1,7.26l22,6.85,8.4,25.74c1,2.82.52,3.94,3.47,3.94,2.29,0,3.3-1,4.57-2.29l11-10.67L75.74,82.19c4.2,2.32,7.23,1.12,8.28-3.9L99,7.67C100.54,1.52,96.66-1.27,92.64.55ZM28.93,47,78.4,15.81c2.47-1.5,4.74-.69,2.88,1L38.92,55,37.27,72.58Z" fill="#fff"/>
    </symbol>
    <symbol id="vk" viewBox="0 0 16 10">
      <path d="M8.54,10c.54,0,.54-.8.54-1.12a1.16,1.16,0,0,1,1.06-1.1c.53,0,1.45,1,2.13,1.66.53.55.53.55,1.07.55h1.6A1.08,1.08,0,0,0,16,8.9c0-.35-.36-.94-1.6-2.23-1.06-1.1-1.61-.53,0-2.77,1-1.37,1.7-2.6,1.58-3S13.13.05,12.8.56a22,22,0,0,0-1.6,2.77c-.52,1.11-.57,1.67-1,1.67s-.53-1.08-.53-1.67C9.6,1.5,9.86.2,9.08,0H7.48a3,3,0,0,0-1.6.56s-.66.53-.53.55,1.06-.23,1.06.56v1.1S6.41,5,5.88,5,4.28,2.78,3.22,1.1C2.8.46,2.68.56,2.15.56L.55.58C0,.58,0,.93,0,1.11A18.12,18.12,0,0,0,3.88,7.83C5.73,9.84,7,10,8,10a4.05,4.05,0,0,0,.53,0Z"/>
    </symbol></svg>