<svg xmlns="http://www.w3.org/2000/svg" viewBox="0 0 577.25 121.96">
  <title>logo-white</title>
  <g>
    <g>
      <path d="M32.73,45.53a5.17,5.17,0,0,0-1.41-1L12,35.41A8.37,8.37,0,1,0,4.68,50.46a8.25,8.25,0,0,0,2.53.77L28.4,54.17a5.09,5.09,0,0,0,4.33-8.64Z" transform="translate(0.69 0.72)" fill="#fff" stroke="#000" stroke-miterlimit="10"/>
      <path d="M127.14,106.23a8,8,0,0,0-1.1-.92L103.42,89.44A5.1,5.1,0,0,0,96.64,97l18.28,20.71c.11.13.24.26.36.38a8.38,8.38,0,1,0,12.24-11.45c-.12-.13-.25-.26-.38-.38Z" transform="translate(0.69 0.72)" fill="#fff" stroke="#000" stroke-miterlimit="10"/>
      <path d="M90.87,108,81.12,91.06A5.61,5.61,0,0,0,80.31,90a5.14,5.14,0,0,0-7.23,0,5.09,5.09,0,0,0-1.4,4.58l3.7,19.17a8.25,8.25,0,0,0,2.29,4.31A8.38,8.38,0,0,0,90.87,108Z" transform="translate(0.69 0.72)" fill="#fff" stroke="#000" stroke-miterlimit="10"/>
      <path d="M2.45,106.23a9.75,9.75,0,0,1,1.1-.92L26.18,89.44A5.1,5.1,0,0,1,33,97L14.68,117.68c-.12.13-.24.26-.37.38A8.38,8.38,0,1,1,2.07,106.61C2.19,106.48,2.32,106.35,2.45,106.23Z" transform="translate(0.69 0.72)" fill="#fff" stroke="#000" stroke-miterlimit="10"/>
      <path d="M38.72,108l9.76-16.91A5.06,5.06,0,0,1,49.29,90a5.11,5.11,0,0,1,8.63,4.58l-3.7,19.17A8.37,8.37,0,1,1,38.72,108Z" transform="translate(0.69 0.72)" fill="#fff" stroke="#000" stroke-miterlimit="10"/>
      <path d="M127.14,14.27a8,8,0,0,1-1.1.92L103.42,31.06a5.1,5.1,0,0,1-6.78-7.53l18.28-20.7c.11-.13.24-.26.36-.39a8.38,8.38,0,1,1,12.24,11.45C127.4,14,127.27,14.15,127.14,14.27Z" transform="translate(0.69 0.72)" fill="#fff" stroke="#000" stroke-miterlimit="10"/>
      <path d="M90.87,12.54l-9.75,16.9a5.1,5.1,0,0,1-7,1.85,5,5,0,0,1-1-.79,5.06,5.06,0,0,1-1.4-4.57l3.7-19.18a8.25,8.25,0,0,1,2.29-4.31,8.44,8.44,0,0,1,11.87,0A8.38,8.38,0,0,1,90.87,12.54Z" transform="translate(0.69 0.72)" fill="#fff" stroke="#000" stroke-miterlimit="10"/>
      <path d="M2.45,14.27a9.75,9.75,0,0,0,1.1.92L26.18,31.06A5.1,5.1,0,0,0,33,23.53L14.68,2.83l-.37-.39A8.38,8.38,0,0,0,2.45,14.27Z" transform="translate(0.69 0.72)" fill="#fff" stroke="#000" stroke-miterlimit="10"/>
      <path d="M38.72,12.54l9.76,16.9a4.66,4.66,0,0,0,.81,1.06,5.11,5.11,0,0,0,8.63-4.57L54.22,6.75A8.4,8.4,0,0,0,40.07,2.4,8.39,8.39,0,0,0,38.72,12.54Z" transform="translate(0.69 0.72)" fill="#fff" stroke="#000" stroke-miterlimit="10"/>
      <path d="M32.73,75a4.83,4.83,0,0,1-1.41,1L12,85.1A8.37,8.37,0,1,1,7.21,69.28l21.19-3A5.09,5.09,0,0,1,32.73,75Z" transform="translate(0.69 0.72)" fill="#fff" stroke="#000" stroke-miterlimit="10"/>
      <path d="M96.86,45.53a5.07,5.07,0,0,1,1.42-1l19.33-9.13a8.37,8.37,0,1,1,4.78,15.82l-21.2,2.94a5.09,5.09,0,0,1-4.33-8.64Z" transform="translate(0.69 0.72)" fill="#fff" stroke="#000" stroke-miterlimit="10"/>
      <path d="M96.86,75a4.87,4.87,0,0,0,1.42,1l19.33,9.13a8.37,8.37,0,1,0,4.78-15.82l-21.2-3a5.14,5.14,0,0,0-4.33,1.44,5.09,5.09,0,0,0,0,7.2Z" transform="translate(0.69 0.72)" fill="#fff" stroke="#000" stroke-miterlimit="10"/>
    </g>
    <path d="M178.67,64.66a4.44,4.44,0,0,0-1.09.12,1.7,1.7,0,0,0-1.27,1.68c0,1,0,2,.06,2.94a20.78,20.78,0,0,0,.6,4,9.39,9.39,0,0,0,3.08,5.13,11.41,11.41,0,0,0,4.9,2.36,29.79,29.79,0,0,0,6.72.7c2.14,0,4.29,0,6.43-.15a52.78,52.78,0,0,0,8.11-1.14c2.58-.55,5.14-1.17,7.72-1.74a7.82,7.82,0,0,1,2.36-.26,3,3,0,0,1,2.9,2.6,7.7,7.7,0,0,1,.1,1.17V85.6a4,4,0,0,1-2.35,3.59,13.66,13.66,0,0,1-3.24,1.06c-2.25.45-4.49.93-6.76,1.27-2.08.32-4.19.51-6.29.7a89.72,89.72,0,0,1-11,.19,45,45,0,0,1-9.8-1.27A23.37,23.37,0,0,1,175,89.37,17.71,17.71,0,0,1,168.06,83a23.43,23.43,0,0,1-3-7.32,48.76,48.76,0,0,1-1-6,95.33,95.33,0,0,1-.4-11.83c0-2.19.1-4.39.26-6.58a42.4,42.4,0,0,1,2-10.47,20.85,20.85,0,0,1,3.81-7,16.72,16.72,0,0,1,5.57-4.23,27.63,27.63,0,0,1,6.8-2.22,42.71,42.71,0,0,1,7.31-.72c2.46,0,4.92-.05,7.38,0A47.07,47.07,0,0,1,207,28a20.19,20.19,0,0,1,7.31,3.39,16.33,16.33,0,0,1,5.44,7.26,29.83,29.83,0,0,1,1.55,6.1A69.3,69.3,0,0,1,221.75,56a12.45,12.45,0,0,1-.46,3.33A6.65,6.65,0,0,1,216.73,64a13.58,13.58,0,0,1-4.38.62Zm28.14-9.38h.9a1.66,1.66,0,0,0,1.42-.88,2.61,2.61,0,0,0,.27-1.13c0-1.35-.07-2.69-.14-4a24.55,24.55,0,0,0-.72-4.66,8.13,8.13,0,0,0-6.08-6.2,27,27,0,0,0-6-.8,71.37,71.37,0,0,0-7.74,0,22.92,22.92,0,0,0-5,.83,9.3,9.3,0,0,0-5,3.35,11.47,11.47,0,0,0-2.07,5.33c-.19,1.27-.3,2.55-.39,3.83a23.08,23.08,0,0,0,0,2.63,1.65,1.65,0,0,0,1.44,1.65,5.55,5.55,0,0,0,1,.09Z" transform="translate(0.69 0.72)" fill="#fff" stroke="#000" stroke-miterlimit="10"/>
    <path d="M480.64,64.66a4,4,0,0,0-1.09.12,1.7,1.7,0,0,0-1.27,1.68c0,1,0,2,.05,2.94a22.46,22.46,0,0,0,.6,4A9.44,9.44,0,0,0,482,78.52a11.45,11.45,0,0,0,4.91,2.36,29.64,29.64,0,0,0,6.71.7c2.15,0,4.3,0,6.44-.15a52.78,52.78,0,0,0,8.11-1.14c2.58-.55,5.14-1.17,7.71-1.74a7.88,7.88,0,0,1,2.37-.26,3,3,0,0,1,2.9,2.6,7.68,7.68,0,0,1,.09,1.17v3.53a4,4,0,0,1-2.35,3.59,13.59,13.59,0,0,1-3.23,1.06c-2.25.45-4.5.93-6.77,1.27-2.08.32-4.18.51-6.28.7a89.72,89.72,0,0,1-11,.19,44.91,44.91,0,0,1-9.79-1.27A23.45,23.45,0,0,1,477,89.36,17.66,17.66,0,0,1,470,83a23.19,23.19,0,0,1-3-7.32,48.76,48.76,0,0,1-1-6,99.37,99.37,0,0,1-.4-11.83c0-2.19.11-4.39.27-6.58a42.81,42.81,0,0,1,1.94-10.46,20.85,20.85,0,0,1,3.81-7,16.52,16.52,0,0,1,5.57-4.23,27.11,27.11,0,0,1,6.81-2.2,44.81,44.81,0,0,1,7.31-.72c2.46,0,4.93-.05,7.39,0A47,47,0,0,1,508.92,28a20.32,20.32,0,0,1,7.32,3.39,16.36,16.36,0,0,1,5.43,7.26,28.61,28.61,0,0,1,1.56,6.1A69.32,69.32,0,0,1,523.72,56a12.45,12.45,0,0,1-.46,3.33A6.65,6.65,0,0,1,518.7,64a13.86,13.86,0,0,1-4.38.62Zm28.13-9.38a6.76,6.76,0,0,0,.9,0,1.65,1.65,0,0,0,1.43-.88,2.76,2.76,0,0,0,.27-1.13c0-1.35-.07-2.69-.14-4a24.55,24.55,0,0,0-.72-4.66,8.13,8.13,0,0,0-6.09-6.2,26.46,26.46,0,0,0-5.94-.8,71.56,71.56,0,0,0-7.75,0,22.92,22.92,0,0,0-5,.83,9.3,9.3,0,0,0-5,3.35,11.22,11.22,0,0,0-2.07,5.33c-.19,1.27-.31,2.55-.4,3.83a23.08,23.08,0,0,0,0,2.63,1.66,1.66,0,0,0,1.45,1.65,5.55,5.55,0,0,0,1,.09Z" transform="translate(0.69 0.72)" fill="#fff" stroke="#000" stroke-miterlimit="10"/>
    <path d="M236.8,40.8a4.79,4.79,0,0,0-.11-1,1.62,1.62,0,0,0-1.52-1.28c-1,0-2.08,0-3.11-.06a5.14,5.14,0,0,1-1.17-.15A4,4,0,0,1,228,34.63V31.26a4.12,4.12,0,0,1,4-4h3.09a1.7,1.7,0,0,0,1.67-1.73h0V16.79a4.12,4.12,0,0,1,1.64-3.32,3.33,3.33,0,0,1,2.07-.73h5a4.08,4.08,0,0,1,3.82,3.17,5,5,0,0,1,.1.95v8.36a3.81,3.81,0,0,0,.07.67A1.72,1.72,0,0,0,251,27.22a7.52,7.52,0,0,0,.82.05H268a4.21,4.21,0,0,1,4.08,3.47v4.33a4,4,0,0,1-3.25,3.4h-17a4.23,4.23,0,0,0-1.12.12,1.81,1.81,0,0,0-1.31,1.83V65a40.42,40.42,0,0,0,.72,7.91,19.39,19.39,0,0,0,1.09,3.65,7.1,7.1,0,0,0,5,4.28,13.61,13.61,0,0,0,3.42.4,26.89,26.89,0,0,0,6.63-.71c1.2-.29,2.39-.61,3.58-.9a3.77,3.77,0,0,1,2.54.23,3.08,3.08,0,0,1,1.75,2.52,8.39,8.39,0,0,1,.06,1v3.38a5.23,5.23,0,0,1-.91,2.79,4,4,0,0,1-1.81,1.36,13.06,13.06,0,0,1-3.52.92c-1.36.19-2.71.41-4.08.49-1.87.12-3.75.16-5.63.15a39.05,39.05,0,0,1-3.9-.23,21.8,21.8,0,0,1-6.82-1.72,14.79,14.79,0,0,1-6.64-6A22.27,22.27,0,0,1,238.26,78a45.56,45.56,0,0,1-1-6.15,88,88,0,0,1-.44-9.33Z" transform="translate(0.69 0.72)" fill="#fff" stroke="#000" stroke-miterlimit="10"/>
    <path d="M538.6,40.8a4.79,4.79,0,0,0-.11-1A1.62,1.62,0,0,0,537,38.55c-1,0-2.07,0-3.11-.06a5.14,5.14,0,0,1-1.17-.15,4,4,0,0,1-2.85-3.71V31.26a4.12,4.12,0,0,1,4-4H537a1.69,1.69,0,0,0,1.67-1.71V16.79a4.12,4.12,0,0,1,1.64-3.32,3.33,3.33,0,0,1,2.07-.73h5a4.08,4.08,0,0,1,3.82,3.17,5,5,0,0,1,.1.95v8.36a3,3,0,0,0,.06.67,1.71,1.71,0,0,0,1.56,1.38,7.52,7.52,0,0,0,.82.05h16.17A4.2,4.2,0,0,1,574,30.79a1.82,1.82,0,0,1,0,.33v4a4,4,0,0,1-3.25,3.4H553.64a4.23,4.23,0,0,0-1.12.12,1.81,1.81,0,0,0-1.31,1.83V65.05a41.21,41.21,0,0,0,.72,7.91A20,20,0,0,0,553,76.6a7.1,7.1,0,0,0,5,4.28,13.61,13.61,0,0,0,3.42.4,26.89,26.89,0,0,0,6.63-.71c1.2-.29,2.39-.61,3.58-.9a3.77,3.77,0,0,1,2.54.23A3,3,0,0,1,576,82.42a8.39,8.39,0,0,1,.06,1V86.8a5.23,5.23,0,0,1-.91,2.79A4,4,0,0,1,573.34,91a13.06,13.06,0,0,1-3.52.92c-1.36.19-2.71.41-4.08.49-1.87.12-3.75.16-5.63.15a39.05,39.05,0,0,1-3.9-.23,21.8,21.8,0,0,1-6.82-1.72,14.79,14.79,0,0,1-6.64-6A22.54,22.54,0,0,1,540.12,78a44,44,0,0,1-1-6.15,85.46,85.46,0,0,1-.45-9.33Z" transform="translate(0.69 0.72)" fill="#fff" stroke="#000" stroke-miterlimit="10"/>
    <path d="M349.77,63.86v-23a24,24,0,0,1,.78-6.54c.16-.53.34-1.06.55-1.57a5.25,5.25,0,0,1,2-2.37,15.19,15.19,0,0,1,4.7-2.1A41.26,41.26,0,0,1,364.5,27a67,67,0,0,1,9.92-.31c1.29,0,2.57.08,3.86.17a38.62,38.62,0,0,1,7.93,1.23,11.52,11.52,0,0,1,1.58.67,2.91,2.91,0,0,1,1.73,2.36,10.83,10.83,0,0,1,.15,1.61v3a6.38,6.38,0,0,1-.27,1.74,2.94,2.94,0,0,1-2.49,2.06,6.74,6.74,0,0,1-2.53-.13c-1.75-.35-3.5-.73-5.26-1a37.52,37.52,0,0,0-7.41-.46,40.22,40.22,0,0,0-5.68.59,5.2,5.2,0,0,0-2.34,1.06,3,3,0,0,0-1.12,2.09,17.24,17.24,0,0,0-.2,2.38V88a4.14,4.14,0,0,1-3.52,3.92h-5a4,4,0,0,1-4-3.35,4.09,4.09,0,0,1,0-.7v-24Z" transform="translate(0.69 0.72)" fill="#fff" stroke="#000" stroke-miterlimit="10"/>
    <path d="M454.31,65.72V88.87a33.24,33.24,0,0,1-1.68,10.56,16.52,16.52,0,0,1-4.88,7.38,19,19,0,0,1-6.94,3.75,35.59,35.59,0,0,1-6.21,1.25,85.16,85.16,0,0,1-12,.42c-1.75,0-3.5-.1-5.24-.25-2-.17-4.06-.42-6.08-.7a59.37,59.37,0,0,1-7.37-1.49,10.19,10.19,0,0,1-2.85-1.19,3.87,3.87,0,0,1-1.91-3.1c-.1-1.42-.06-2.85-.07-4.27a2.94,2.94,0,0,1,.05-.51A3.42,3.42,0,0,1,402,97.86a5.41,5.41,0,0,1,2.19.17L410,99.52A59.91,59.91,0,0,0,417.6,101a63,63,0,0,0,10.28.36,29.8,29.8,0,0,0,6.71-.92,9.84,9.84,0,0,0,3.53-1.61A8,8,0,0,0,440.77,95a16.09,16.09,0,0,0,.92-4.49,5.06,5.06,0,0,0-.1-1.4,1.79,1.79,0,0,0-1.79-1.45,19.26,19.26,0,0,0-2.15.16c-1.25.14-2.5.31-3.75.44s-2.48.25-3.72.32c-1.63.1-3.27.18-4.91.19-2,0-4,0-6-.1a42.22,42.22,0,0,1-9.86-1.48,18.69,18.69,0,0,1-7.73-4.29,17.83,17.83,0,0,1-4.57-6.9,31.83,31.83,0,0,1-1.66-6.59,63.54,63.54,0,0,1-.68-9.94c0-2,0-3.92.08-5.87,0-1.51.21-3,.34-4.52a40.89,40.89,0,0,1,.88-5.5,24,24,0,0,1,3-7.66,17.69,17.69,0,0,1,9.5-7.37,32.45,32.45,0,0,1,5.85-1.35,62.82,62.82,0,0,1,9.19-.56c2.41,0,4.82,0,7.23.07,2,.06,3.9.22,5.85.4a35.78,35.78,0,0,1,7.53,1.44,19.86,19.86,0,0,1,4.77,2.2,10.84,10.84,0,0,1,4.75,6.68,20.73,20.73,0,0,1,.57,4.84Zm-12.57-7.19h0V46.28a13.58,13.58,0,0,0-.36-3.24,8.93,8.93,0,0,0-.54-1.58,3.8,3.8,0,0,0-1.78-1.65,12.51,12.51,0,0,0-3.21-1.13,34.21,34.21,0,0,0-6.84-.76,81.66,81.66,0,0,0-8.85.08,27.42,27.42,0,0,0-4.59.73,9.14,9.14,0,0,0-6.66,5.86,20.17,20.17,0,0,0-1.19,5.53c-.16,1.81-.28,3.63-.33,5.44a69.61,69.61,0,0,0,.42,11.18,18.83,18.83,0,0,0,1,4.11,8.88,8.88,0,0,0,5.09,5.35,16.39,16.39,0,0,0,4.93,1.09c1.47.13,3,.21,4.44.23A81.9,81.9,0,0,0,435.89,77a13.33,13.33,0,0,0,3.24-.78,3.51,3.51,0,0,0,2.39-2.64,10.57,10.57,0,0,0,.21-1.94C441.75,67.27,441.74,62.9,441.74,58.53Z" transform="translate(0.69 0.72)" fill="#fff" stroke="#000" stroke-miterlimit="10"/>
    <path d="M337.6,64.29V75.52a20.77,20.77,0,0,1-1,6.4,12.12,12.12,0,0,1-5.91,7,23.53,23.53,0,0,1-6.64,2.42,49.9,49.9,0,0,1-6.08.83c-3.92.32-7.85.34-11.78.28a44.23,44.23,0,0,1-9.59-1.11,24.87,24.87,0,0,1-6.5-2.48,15.18,15.18,0,0,1-7.24-9,23.62,23.62,0,0,1-1-5.06,43.47,43.47,0,0,1-.08-6.25,18.57,18.57,0,0,1,1.61-6.92A13.28,13.28,0,0,1,290,55.21a26.16,26.16,0,0,1,6.46-2,49.24,49.24,0,0,1,9.39-.75c2.08,0,4.16,0,6.23.09,1.79.07,3.58.22,5.36.39s3.27.42,4.9.61a5.48,5.48,0,0,0,1.28,0A1.72,1.72,0,0,0,325,51.69c0-1.21-.05-2.43-.15-3.64a15.22,15.22,0,0,0-1-4,8.45,8.45,0,0,0-5.9-5.37,24,24,0,0,0-4.9-.89,48.81,48.81,0,0,0-6.4,0,58.75,58.75,0,0,0-6.48.78c-3,.51-5.83,1.29-8.75,2a20.34,20.34,0,0,1-2.57.46,3.4,3.4,0,0,1-4-2.67,3.09,3.09,0,0,1-.06-.86V33.92a4.89,4.89,0,0,1,.83-2.45,4.13,4.13,0,0,1,1.69-1.32,15.1,15.1,0,0,1,3-1,65.34,65.34,0,0,1,8.2-1.63,88.49,88.49,0,0,1,15-.71,42.4,42.4,0,0,1,10.21,1.43A16.91,16.91,0,0,1,332,33.17a17.86,17.86,0,0,1,3.63,6.56A36.7,36.7,0,0,1,337,46.2a79,79,0,0,1,.62,10.65C337.59,59.33,337.6,61.81,337.6,64.29ZM325,70.88h0v-4.6a9.81,9.81,0,0,0-.12-1.33,2.36,2.36,0,0,0-1.52-2,7.55,7.55,0,0,0-1.14-.36,41.7,41.7,0,0,0-7.55-.87c-2.24-.08-4.48-.1-6.72-.11a31.47,31.47,0,0,0-7.56.71,9.42,9.42,0,0,0-3.21,1.33,6.78,6.78,0,0,0-2.73,4.5,20.42,20.42,0,0,0-.22,4.28,14.78,14.78,0,0,0,.38,3.11,7.59,7.59,0,0,0,5.51,6,23.69,23.69,0,0,0,6.31,1c2.92.09,5.85,0,8.77-.15a31.41,31.41,0,0,0,4.73-.62,9.16,9.16,0,0,0,3.3-1.3,3,3,0,0,0,1.25-1.55,9.39,9.39,0,0,0,.51-3.11C325,74.11,325,72.5,325,70.88Z" transform="translate(0.69 0.72)" fill="#fff" stroke="#000" stroke-miterlimit="10"/>
  </g>
</svg>
