<svg xmlns="http://www.w3.org/2000/svg" viewBox="0 0 28 24"><defs><clipPath id="a" transform="translate(5 5)"><path d="M3.4,8l4.3,4.3a1,1,0,0,1-1.4,1.4l-6-6a1,1,0,0,1,0-1.4l6-6A1,1,0,0,1,7.7.3a1,1,0,0,1,0,1.4L3.4,6H17a.94.94,0,0,1,1,1,.94.94,0,0,1-1,1Z" fill="none"/></clipPath><clipPath id="b" transform="translate(5 5)"><path fill="none" d="M-5 -5H23V19H-5z"/></clipPath><clipPath id="c" transform="translate(5 5)"><path fill="none" d="M0 0H18V14H0z"/></clipPath></defs><g clip-path="url(#a)"><g clip-path="url(#b)"><g clip-path="url(#c)"><path d="M23,19H-5V-5H23Z" transform="translate(5 5)"/></g></g></g></svg>