<svg xmlns="http://www.w3.org/2000/svg" xmlns:xlink="http://www.w3.org/1999/xlink" viewBox="0 0 576.04 120.5"><defs><radialGradient id="a" cx="8.4" cy="42.94" r="26.7" gradientUnits="userSpaceOnUse"><stop offset=".33"/><stop offset="1" stop-opacity=".51"/></radialGradient><radialGradient id="b" cx="121.21" cy="112.1" r="32.82" gradientUnits="userSpaceOnUse"><stop offset=".25"/><stop offset="1" stop-opacity=".51"/></radialGradient><radialGradient id="c" cx="83.52" cy="112.04" r="24.74" xlink:href="#a"/><radialGradient id="d" cx="53.82" cy="112.1" r="32.82" gradientTransform="matrix(-1 0 0 1 62.21 0)" xlink:href="#b"/><radialGradient id="e" cx="16.13" cy="112.04" r="24.74" gradientTransform="matrix(-1 0 0 1 62.21 0)" xlink:href="#a"/><radialGradient id="f" cx="121.21" cy="898.53" r="32.82" gradientTransform="matrix(1 0 0 -1 0 906.93)" xlink:href="#b"/><radialGradient id="g" cx="83.52" cy="898.47" r="24.74" gradientTransform="matrix(1 0 0 -1 0 906.93)" xlink:href="#a"/><radialGradient id="h" cx="53.82" cy="898.53" r="32.82" gradientTransform="rotate(180 31.1 453.46)" xlink:href="#b"/><radialGradient id="i" cx="16.13" cy="898.47" r="24.74" gradientTransform="rotate(180 31.1 453.46)" xlink:href="#a"/><radialGradient id="j" cx="8.4" cy="678.81" r="26.7" gradientTransform="matrix(1 0 0 -1 0 756.37)" xlink:href="#a"/><radialGradient id="k" cx="-149.49" cy="42.94" r="26.7" gradientTransform="matrix(-1 0 0 1 -28.29 0)" xlink:href="#a"/><radialGradient id="l" cx="-149.49" cy="678.81" r="26.7" gradientTransform="rotate(180 -14.15 378.19)" xlink:href="#a"/></defs><path fill="url(#a)" d="M32.73 45.53a5 5 0 0 0-1.41-1L12 35.41a8.37 8.37 0 1 0-4.79 15.82l21.19 2.94a5.09 5.09 0 0 0 4.33-8.64z"/><path fill="url(#b)" d="M127.14 106.23a8 8 0 0 0-1.1-.92l-22.62-15.87A5.1 5.1 0 0 0 96.64 97l18.28 20.71.36.38a8.38 8.38 0 1 0 11.86-11.83z"/><path fill="url(#c)" d="M90.87 108l-9.75-16.94a5.42 5.42 0 0 0-.81-1.06 5.14 5.14 0 0 0-7.23 0 5.08 5.08 0 0 0-1.4 4.58l3.7 19.17a8.27 8.27 0 0 0 2.29 4.31A8.38 8.38 0 0 0 90.87 108z"/><path fill="url(#d)" d="M2.45 106.23a9.41 9.41 0 0 1 1.1-.92l22.63-15.87A5.1 5.1 0 0 1 33 97l-18.32 20.68-.37.38a8.38 8.38 0 1 1-11.86-11.83z"/><path fill="url(#e)" d="M38.72 108l9.76-16.91a5.06 5.06 0 0 1 .81-1.09 5.11 5.11 0 0 1 8.63 4.58l-3.7 19.17a8.29 8.29 0 0 1-2.3 4.31A8.38 8.38 0 0 1 38.72 108z"/><path fill="url(#f)" d="M127.14 14.27a8 8 0 0 1-1.1.92l-22.62 15.87a5.1 5.1 0 0 1-6.78-7.53l18.28-20.7.36-.39a8.38 8.38 0 1 1 11.86 11.83z"/><path fill="url(#g)" d="M90.87 12.54l-9.75 16.9a5.1 5.1 0 0 1-8 1.06 5.07 5.07 0 0 1-1.4-4.57l3.7-19.18a8.27 8.27 0 0 1 2.29-4.31 8.44 8.44 0 0 1 11.87 0 8.38 8.38 0 0 1 1.29 10.1z"/><path fill="url(#h)" d="M2.45 14.27a9.41 9.41 0 0 0 1.1.92l22.63 15.87A5.1 5.1 0 0 0 33 23.53L14.68 2.83l-.37-.39A8.38 8.38 0 0 0 2.45 14.27z"/><path fill="url(#i)" d="M38.72 12.54l9.76 16.9a4.81 4.81 0 0 0 .81 1.06 5.11 5.11 0 0 0 8.63-4.57l-3.7-19.18a8.29 8.29 0 0 0-2.3-4.31 8.38 8.38 0 0 0-13.2 10.1z"/><path fill="url(#j)" d="M32.73 75a4.85 4.85 0 0 1-1.41 1L12 85.1a8.37 8.37 0 0 1-9.55-13.46 8.31 8.31 0 0 1 4.76-2.36l21.19-3A5.09 5.09 0 0 1 32.73 75z"/><path fill="url(#k)" d="M96.86 45.53a5.05 5.05 0 0 1 1.42-1l19.33-9.13a8.37 8.37 0 1 1 4.78 15.82l-21.2 2.94a5.09 5.09 0 0 1-4.33-8.64z"/><path fill="url(#l)" d="M96.86 75a4.89 4.89 0 0 0 1.42 1l19.33 9.13a8.37 8.37 0 1 0 4.78-15.82l-21.2-3a5.15 5.15 0 0 0-4.33 1.44 5.09 5.09 0 0 0 0 7.25z"/><path d="M178.67 64.66a4.44 4.44 0 0 0-1.09.12 1.7 1.7 0 0 0-1.27 1.68c0 1 0 2 .06 2.94a21.48 21.48 0 0 0 .6 4 9.39 9.39 0 0 0 3.08 5.13 11.47 11.47 0 0 0 4.9 2.36 29.79 29.79 0 0 0 6.72.7c2.14 0 4.29 0 6.43-.15a52.78 52.78 0 0 0 8.11-1.14c2.58-.55 5.14-1.17 7.72-1.74a7.78 7.78 0 0 1 2.36-.26 3 3 0 0 1 2.9 2.6 7.59 7.59 0 0 1 .1 1.17v3.53a4 4 0 0 1-2.35 3.59 13.81 13.81 0 0 1-3.24 1.06c-2.25.45-4.49.93-6.76 1.27-2.08.32-4.19.51-6.29.7a90.21 90.21 0 0 1-11 .19 45.08 45.08 0 0 1-9.8-1.27 23.37 23.37 0 0 1-4.86-1.77 17.71 17.71 0 0 1-6.93-6.37 23.38 23.38 0 0 1-3-7.32 48.71 48.71 0 0 1-1-6 95.33 95.33 0 0 1-.4-11.83c0-2.19.1-4.39.26-6.58a42.43 42.43 0 0 1 1.98-10.47 21 21 0 0 1 3.81-7 16.72 16.72 0 0 1 5.57-4.23 27.63 27.63 0 0 1 6.8-2.22 43.63 43.63 0 0 1 7.31-.72c2.46 0 4.92-.05 7.38 0A47.23 47.23 0 0 1 207 28a20.19 20.19 0 0 1 7.31 3.39 16.33 16.33 0 0 1 5.44 7.26 29.2 29.2 0 0 1 1.55 6.1 69.37 69.37 0 0 1 .45 11.25 12.5 12.5 0 0 1-.46 3.33 6.66 6.66 0 0 1-4.56 4.67 13.54 13.54 0 0 1-4.38.62zm28.14-9.38h.9a1.67 1.67 0 0 0 1.42-.88 2.61 2.61 0 0 0 .27-1.13c0-1.35-.07-2.69-.14-4a23.78 23.78 0 0 0-.72-4.66 8.13 8.13 0 0 0-6.08-6.2 26.63 26.63 0 0 0-6-.8 74 74 0 0 0-7.74 0 22.83 22.83 0 0 0-5 .83 9.31 9.31 0 0 0-5 3.35 11.47 11.47 0 0 0-2.07 5.33c-.19 1.27-.3 2.55-.39 3.83a21 21 0 0 0 0 2.63 1.65 1.65 0 0 0 1.44 1.65 5.63 5.63 0 0 0 1 .09zM480.64 64.66a4.39 4.39 0 0 0-1.09.12 1.69 1.69 0 0 0-1.27 1.68c0 1 0 2 .05 2.94a22.35 22.35 0 0 0 .6 4 9.45 9.45 0 0 0 3.07 5.12 11.5 11.5 0 0 0 4.91 2.36 29.76 29.76 0 0 0 6.71.7c2.15 0 4.3 0 6.44-.15a53 53 0 0 0 8.11-1.14c2.58-.55 5.14-1.17 7.71-1.74a7.85 7.85 0 0 1 2.37-.26 3 3 0 0 1 2.9 2.6 7.59 7.59 0 0 1 .09 1.17v3.53a4 4 0 0 1-2.35 3.59 13.59 13.59 0 0 1-3.23 1.06c-2.25.45-4.5.93-6.77 1.27-2.08.32-4.18.51-6.28.7a90.34 90.34 0 0 1-11 .19 44.91 44.91 0 0 1-9.79-1.27 23.45 23.45 0 0 1-4.87-1.77A17.61 17.61 0 0 1 470 83a23.15 23.15 0 0 1-3-7.32 48.74 48.74 0 0 1-1-6 99.37 99.37 0 0 1-.4-11.83c0-2.19.11-4.39.27-6.58a42.43 42.43 0 0 1 1.94-10.46 21 21 0 0 1 3.81-7 16.52 16.52 0 0 1 5.57-4.23 27.42 27.42 0 0 1 6.81-2.2 43.84 43.84 0 0 1 7.31-.72c2.46 0 4.93-.05 7.39 0A47.21 47.21 0 0 1 508.92 28a20.32 20.32 0 0 1 7.32 3.39 16.31 16.31 0 0 1 5.43 7.26 28.61 28.61 0 0 1 1.56 6.1 69.37 69.37 0 0 1 .49 11.25 12.5 12.5 0 0 1-.46 3.33A6.66 6.66 0 0 1 518.7 64a13.58 13.58 0 0 1-4.38.62zm28.13-9.38a8.9 8.9 0 0 0 .9 0 1.67 1.67 0 0 0 1.43-.88 2.76 2.76 0 0 0 .27-1.13c0-1.35-.07-2.69-.14-4a23.78 23.78 0 0 0-.72-4.66 8.14 8.14 0 0 0-6.09-6.2 26.46 26.46 0 0 0-5.94-.8 74.19 74.19 0 0 0-7.75 0 22.74 22.74 0 0 0-5 .83 9.28 9.28 0 0 0-5 3.35 11.26 11.26 0 0 0-2.07 5.33 49.2 49.2 0 0 0-.4 3.83 25.62 25.62 0 0 0 0 2.63 1.67 1.67 0 0 0 1.45 1.65 5.55 5.55 0 0 0 1 .09zM236.8 40.8a4.58 4.58 0 0 0-.11-1 1.62 1.62 0 0 0-1.52-1.28c-1 0-2.08 0-3.11-.06a5.14 5.14 0 0 1-1.17-.15 4 4 0 0 1-2.89-3.68v-3.37a4.11 4.11 0 0 1 4-4h3.09a1.7 1.7 0 0 0 1.67-1.74v-.41-8.32a4.11 4.11 0 0 1 1.64-3.32 3.33 3.33 0 0 1 2.07-.73h5a4.09 4.09 0 0 1 3.82 3.17 5 5 0 0 1 .1.95v8.36a3.81 3.81 0 0 0 .07.67 1.71 1.71 0 0 0 1.54 1.33 7.52 7.52 0 0 0 .82.05h16.17a4.21 4.21 0 0 1 4.08 3.47v4.33a4 4 0 0 1-3.25 3.4 7.89 7.89 0 0 1-.84 0h-16.14a4.63 4.63 0 0 0-1.12.12 1.82 1.82 0 0 0-1.31 1.83 1.09 1.09 0 0 0 0 .18V65a40.42 40.42 0 0 0 .72 7.91 19.39 19.39 0 0 0 1.09 3.65 7.12 7.12 0 0 0 5 4.28 13.61 13.61 0 0 0 3.42.4 26.94 26.94 0 0 0 6.63-.71c1.2-.29 2.39-.61 3.58-.9a3.77 3.77 0 0 1 2.54.23 3.06 3.06 0 0 1 1.75 2.52 7.89 7.89 0 0 1 .06 1v3.38a5.26 5.26 0 0 1-.91 2.79 4 4 0 0 1-1.81 1.36 13.34 13.34 0 0 1-3.52.92c-1.36.19-2.71.41-4.08.49-1.87.12-3.75.16-5.63.15-1.3 0-2.61-.1-3.9-.23a21.8 21.8 0 0 1-6.82-1.72 14.79 14.79 0 0 1-6.64-6 22.27 22.27 0 0 1-2.63-6.52 45.92 45.92 0 0 1-1-6.15 88 88 0 0 1-.44-9.33zM538.6 40.8a4.58 4.58 0 0 0-.11-1 1.61 1.61 0 0 0-1.49-1.25c-1 0-2.07 0-3.11-.06a5.14 5.14 0 0 1-1.17-.15 4 4 0 0 1-2.85-3.71v-3.37a4.12 4.12 0 0 1 4-4h3.09a1.69 1.69 0 0 0 1.67-1.74v-.41-8.32a4.11 4.11 0 0 1 1.64-3.32 3.33 3.33 0 0 1 2.07-.73h5a4.08 4.08 0 0 1 3.82 3.17 5 5 0 0 1 .1.95v8.36a3 3 0 0 0 .06.67 1.71 1.71 0 0 0 1.56 1.38 7.52 7.52 0 0 0 .82.05h16.17a4.2 4.2 0 0 1 4.08 3.47 1.84 1.84 0 0 1 0 .33v4a4 4 0 0 1-3.25 3.4 7.89 7.89 0 0 1-.84 0h-16.22a4.63 4.63 0 0 0-1.12.12 1.82 1.82 0 0 0-1.31 1.83 1.09 1.09 0 0 0 0 .18v24.4a41.21 41.21 0 0 0 .72 7.91A19.39 19.39 0 0 0 553 76.6a7.12 7.12 0 0 0 5 4.28 13.61 13.61 0 0 0 3.42.4 26.89 26.89 0 0 0 6.63-.71c1.2-.29 2.39-.61 3.58-.9a3.77 3.77 0 0 1 2.54.23 3 3 0 0 1 1.83 2.52 7.89 7.89 0 0 1 .06 1v3.38a5.26 5.26 0 0 1-.91 2.79 4 4 0 0 1-1.81 1.36 13.34 13.34 0 0 1-3.52.92c-1.36.19-2.71.41-4.08.49-1.87.12-3.75.16-5.63.15-1.3 0-2.61-.1-3.9-.23a21.8 21.8 0 0 1-6.82-1.72 14.79 14.79 0 0 1-6.64-6 22.54 22.54 0 0 1-2.63-6.52 44.35 44.35 0 0 1-1-6.15 85.46 85.46 0 0 1-.45-9.33zM349.77 63.86v-23a24.05 24.05 0 0 1 .78-6.54c.16-.53.34-1.06.55-1.57a5.27 5.27 0 0 1 2-2.37 15.06 15.06 0 0 1 4.7-2.1 41.33 41.33 0 0 1 6.7-1.28 67.09 67.09 0 0 1 9.92-.31c1.29 0 2.57.08 3.86.17a38.73 38.73 0 0 1 7.93 1.23 11.52 11.52 0 0 1 1.58.67 2.93 2.93 0 0 1 1.73 2.36 12.35 12.35 0 0 1 .15 1.61v3a6.38 6.38 0 0 1-.27 1.74 2.94 2.94 0 0 1-2.49 2.06 6.73 6.73 0 0 1-2.53-.13c-1.75-.35-3.5-.73-5.26-1a37.52 37.52 0 0 0-7.41-.46 40.07 40.07 0 0 0-5.68.59 5.19 5.19 0 0 0-2.34 1.06 3 3 0 0 0-1.12 2.09 17.37 17.37 0 0 0-.2 2.38v43.9a4.14 4.14 0 0 1-3.52 3.92H353.83a4 4 0 0 1-4-3.35 4.05 4.05 0 0 1 0-.7v-24zM454.31 65.72v23.15a33.28 33.28 0 0 1-1.68 10.56 16.52 16.52 0 0 1-4.88 7.38 18.89 18.89 0 0 1-6.94 3.75 35.23 35.23 0 0 1-6.21 1.25 85.16 85.16 0 0 1-11.95.42c-1.75 0-3.5-.1-5.24-.25-2-.17-4.06-.42-6.08-.7a60.12 60.12 0 0 1-7.37-1.49 10.19 10.19 0 0 1-2.85-1.19 3.86 3.86 0 0 1-1.91-3.1c-.1-1.42-.06-2.85-.07-4.27a2.94 2.94 0 0 1 .05-.51 3.42 3.42 0 0 1 2.82-2.86 5.39 5.39 0 0 1 2.19.17l5.77 1.49a60.5 60.5 0 0 0 7.64 1.48 63.09 63.09 0 0 0 10.28.36 29.72 29.72 0 0 0 6.71-.92 9.77 9.77 0 0 0 3.53-1.61 8 8 0 0 0 2.65-3.83 16.09 16.09 0 0 0 .92-4.49 5.09 5.09 0 0 0-.1-1.4 1.79 1.79 0 0 0-1.79-1.45 19.26 19.26 0 0 0-2.15.16c-1.25.14-2.5.31-3.75.44s-2.48.25-3.72.32c-1.63.1-3.27.18-4.91.19-2 0-4 0-6-.1a42.22 42.22 0 0 1-9.86-1.48 18.69 18.69 0 0 1-7.73-4.29 17.9 17.9 0 0 1-4.57-6.9 31.83 31.83 0 0 1-1.66-6.59 63.54 63.54 0 0 1-.68-9.94c0-2 0-3.92.08-5.87 0-1.51.21-3 .34-4.52a41.15 41.15 0 0 1 .88-5.5 24.11 24.11 0 0 1 3-7.66 17.69 17.69 0 0 1 9.5-7.37 32.85 32.85 0 0 1 5.85-1.35 62.74 62.74 0 0 1 9.19-.56c2.41 0 4.82 0 7.23.07 1.95.06 3.9.22 5.85.4a35.66 35.66 0 0 1 7.53 1.44 19.66 19.66 0 0 1 4.77 2.2 10.82 10.82 0 0 1 4.75 6.68 20.33 20.33 0 0 1 .57 4.84v23.45zm-12.57-7.19V46.28a13.53 13.53 0 0 0-.36-3.24 8.66 8.66 0 0 0-.54-1.58 3.85 3.85 0 0 0-1.78-1.65 12.27 12.27 0 0 0-3.21-1.13 34.21 34.21 0 0 0-6.84-.76 81.66 81.66 0 0 0-8.85.08 27.42 27.42 0 0 0-4.59.73 9.13 9.13 0 0 0-6.66 5.86 20.17 20.17 0 0 0-1.19 5.53 90.2 90.2 0 0 0-.33 5.44 69.57 69.57 0 0 0 .42 11.18 18.79 18.79 0 0 0 1 4.11 8.88 8.88 0 0 0 5.09 5.35 16.39 16.39 0 0 0 4.93 1.09c1.47.13 3 .21 4.44.23a82.17 82.17 0 0 0 12.62-.52 13.44 13.44 0 0 0 3.24-.78 3.52 3.52 0 0 0 2.39-2.64 10.57 10.57 0 0 0 .21-1.94c.02-4.37.01-8.74.01-13.11zM337.6 64.29v11.23a20.76 20.76 0 0 1-1 6.4 12.12 12.12 0 0 1-5.91 7 23.53 23.53 0 0 1-6.64 2.42 49.9 49.9 0 0 1-6.08.83c-3.92.32-7.85.34-11.78.28a44.23 44.23 0 0 1-9.59-1.11 24.87 24.87 0 0 1-6.5-2.48 15.19 15.19 0 0 1-7.24-9 23.6 23.6 0 0 1-1-5.06 43.47 43.47 0 0 1-.08-6.25 18.57 18.57 0 0 1 1.61-6.92 13.26 13.26 0 0 1 6.61-6.42 26.16 26.16 0 0 1 6.46-2 49.24 49.24 0 0 1 9.39-.75 95.85 95.85 0 0 1 11.59.48c1.78.17 3.27.42 4.9.61a5 5 0 0 0 1.28 0 1.72 1.72 0 0 0 1.38-1.86c0-1.21-.05-2.43-.15-3.64a15.33 15.33 0 0 0-.95-4.05 8.45 8.45 0 0 0-5.9-5.37 24 24 0 0 0-4.9-.89 47.14 47.14 0 0 0-6.4 0 58.75 58.75 0 0 0-6.48.78c-3 .51-5.83 1.29-8.75 2a20.34 20.34 0 0 1-2.57.46 3.4 3.4 0 0 1-4.06-3.53v-3.53a4.82 4.82 0 0 1 .83-2.45 4.13 4.13 0 0 1 1.69-1.32 15 15 0 0 1 3-1 65.34 65.34 0 0 1 8.2-1.63 89.19 89.19 0 0 1 15-.71 42 42 0 0 1 10.21 1.43 16.89 16.89 0 0 1 8.23 4.93 17.93 17.93 0 0 1 3.63 6.56A36.77 36.77 0 0 1 337 46.2a79.06 79.06 0 0 1 .62 10.65c-.03 2.48-.02 4.96-.02 7.44zM325 70.88v-4.6a9.67 9.67 0 0 0-.12-1.33 2.35 2.35 0 0 0-1.52-2 6.56 6.56 0 0 0-1.14-.36 41.8 41.8 0 0 0-7.55-.87c-2.24-.08-4.48-.1-6.72-.11a31.52 31.52 0 0 0-7.56.71 9.54 9.54 0 0 0-3.21 1.33 6.78 6.78 0 0 0-2.73 4.5 20.42 20.42 0 0 0-.22 4.28 14.86 14.86 0 0 0 .38 3.11 7.59 7.59 0 0 0 5.51 6 23.7 23.7 0 0 0 6.31 1c2.92.09 5.85 0 8.77-.15a31.41 31.41 0 0 0 4.73-.62 9.16 9.16 0 0 0 3.3-1.3 3.07 3.07 0 0 0 1.25-1.55 9.43 9.43 0 0 0 .51-3.11l.01-4.93z"/></svg>