<svg xmlns="http://www.w3.org/2000/svg" xmlns:xlink="http://www.w3.org/1999/xlink" viewBox="0 0 18 14"><defs><path id="a" d="M14.6 6l-4.3-4.3c-.4-.4-.4-1 0-1.4s1-.4 1.4 0l6 6c.4.4.4 1 0 1.4l-6 6c-.4.4-1 .4-1.4 0s-.4-1 0-1.4L14.6 8H1c-.6 0-1-.4-1-1s.4-1 1-1h13.6z"/></defs><clipPath id="b"><use overflow="visible" xlink:href="#a"/></clipPath><g clip-path="url(#b)"><defs><path id="c" d="M-5-5h28v24H-5z"/></defs><clipPath id="d"><use overflow="visible" xlink:href="#c"/></clipPath><g clip-path="url(#d)"><defs><path id="e" d="M0 0h18v14H0z"/></defs><clipPath id="f"><use overflow="visible" xlink:href="#e"/></clipPath><g clip-path="url(#f)"><path d="M-5-5h28v24H-5V-5z"/></g></g></g></svg>