<svg xmlns="http://www.w3.org/2000/svg" viewBox="0 0 28 24"><defs><clipPath id="a" transform="translate(5 5)"><path d="M14.6,6,10.3,1.7a1,1,0,0,1,0-1.4,1,1,0,0,1,1.4,0l6,6a1,1,0,0,1,0,1.4l-6,6a1,1,0,0,1-1.4-1.4L14.6,8H1A.94.94,0,0,1,0,7,.94.94,0,0,1,1,6Z" fill="#fff"/></clipPath><clipPath id="b" transform="translate(5 5)"><path fill="#fff" d="M-5 -5H23V19H-5z"/></clipPath><clipPath id="c" transform="translate(5 5)"><path fill="#fff" d="M0 0H18V14H0z"/></clipPath></defs><path d="M14.6,6,10.3,1.7a1,1,0,0,1,0-1.4,1,1,0,0,1,1.4,0l6,6a1,1,0,0,1,0,1.4l-6,6a1,1,0,0,1-1.4-1.4L14.6,8H1A.94.94,0,0,1,0,7,.94.94,0,0,1,1,6Z" transform="translate(5 5)" fill="#fff"/><g clip-path="url(#a)"><path fill="#fff" d="M0 0H28V24H0z"/><g clip-path="url(#b)"><path fill="#fff" d="M5 5H23V19H5z"/><g clip-path="url(#c)"><path d="M-5-5H23V19H-5Z" transform="translate(5 5)" fill="#fff"/></g></g></g></svg>